<?xml version="1.0" encoding="UTF-8" standalone="no"?>
<!-- Created with Inkscape (http://www.inkscape.org/) -->

<svg
   xmlns:dc="http://purl.org/dc/elements/1.1/"
   xmlns:cc="http://creativecommons.org/ns#"
   xmlns:rdf="http://www.w3.org/1999/02/22-rdf-syntax-ns#"
   xmlns:svg="http://www.w3.org/2000/svg"
   xmlns="http://www.w3.org/2000/svg"
   xmlns:sodipodi="http://sodipodi.sourceforge.net/DTD/sodipodi-0.dtd"
   xmlns:inkscape="http://www.inkscape.org/namespaces/inkscape"
   id="svg4217"
   sodipodi:modified="true"
   viewBox="0 0 431.10379 431.60244"
   inkscape:export-ydpi="13.34799"
   inkscape:export-xdpi="13.34799"
   version="1.0"
   inkscape:output_extension="org.inkscape.output.svg.inkscape"
   sodipodi:docname="barretr-Key-LoggedOut.svg"
   inkscape:export-filename="/home/benjaminh/Dokumente/Development/PwChromeAddon/iconLoggedOut.png"
   inkscape:version="0.91 r13725"
   sodipodi:version="0.32"
   width="431.10379"
   height="431.60245">
  <defs
     id="defs4219" />
  <sodipodi:namedview
     id="base"
     bordercolor="#666666"
     inkscape:pageshadow="2"
     guidetolerance="10"
     pagecolor="#ffffff"
     gridtolerance="10000"
     inkscape:window-height="1021"
     width="390px"
     inkscape:zoom="1.979899"
     objecttolerance="10"
     height="390px"
     borderopacity="1.0"
     inkscape:current-layer="layer2"
     inkscape:cx="43.696059"
     inkscape:cy="198.44302"
     inkscape:window-y="0"
     inkscape:window-x="1280"
     inkscape:window-width="1680"
     inkscape:pageopacity="0.0"
     inkscape:document-units="px"
     showgrid="false"
     inkscape:window-maximized="1"
     fit-margin-top="0"
     fit-margin-left="0"
     fit-margin-right="0"
     fit-margin-bottom="0" />
  <g
     inkscape:groupmode="layer"
     id="layer2"
     inkscape:label="Layer 2"
     transform="translate(41.548126,38.687134)">
    <circle
       style="opacity:1;fill:#999999;fill-opacity:1;stroke:none;stroke-width:2.76006913;stroke-linecap:butt;stroke-linejoin:miter;stroke-miterlimit:4;stroke-dasharray:none;stroke-dashoffset:0;stroke-opacity:1"
       id="path3222"
       cx="174.21469"
       cy="177.07568"
       r="215.76282" />
  </g>
  <g
     id="layer1"
     inkscape:label="Layer 1"
     inkscape:groupmode="layer"
     transform="translate(-150.65187,-104.08287)">
    <path
       id="path6625"
       style="color:#000000;fill:#4d4d4d;fill-opacity:1;stroke:#000000;stroke-width:3;stroke-miterlimit:4;stroke-dasharray:none;stroke-opacity:1"
       d="m 227.2,177.73 c -46.65,46.65 -46.67,122.4 -0.03,169.04 30.92,30.92 74.6,41.33 114.12,31.27 l 22.3,22.29 37.6497,-35.5461 L 544.04581,510.92724 574.58,515.49 580.2,451.72 558.13,429.65 536.1,407.62 514.05,385.57 492.02,363.55 469.97,341.5 447.92,319.45 425.87,297.4 c 12.55,-40.94 2.66,-87.25 -29.71,-119.62 -46.64,-46.64 -122.32,-46.69 -168.96,-0.05 z m 24.21,24.32 c 21.41,-21.41 52.07,-25.54 68.44,-9.17 16.37,16.37 12.26,47.05 -9.14,68.46 -21.41,21.41 -52.07,25.49 -68.44,9.12 -16.37,-16.37 -12.27,-47.01 9.14,-68.41 z"
       inkscape:export-ydpi="90"
       inkscape:export-filename="/home/barret/Desktop/My Documents/Art/icons/key.png"
       inkscape:export-xdpi="90"
       inkscape:connector-curvature="0"
       sodipodi:nodetypes="sscccccccccccccsscscsc" />
    <path
       id="path6632"
       style="color:#000000;fill:#666666;fill-opacity:1;stroke:#000000;stroke-width:3;stroke-miterlimit:4;stroke-dasharray:none;stroke-opacity:1"
       d="m 239.44,192.87 c -36.65,38.56 -36.03,99.58 1.8,137.42 38.44,38.43 46.67,-15.69 85.1,-54.13 38.43,-38.43 92.59,-46.69 54.15,-85.12 -38.43,-38.44 -100.81,-38.41 -139.25,0.03 -0.6,0.6 -1.22,1.19 -1.8,1.8 z m 11.99,9.17 c 21.4,-21.41 52.05,-25.51 68.42,-9.14 16.37,16.37 12.27,47.02 -9.14,68.43 -21.4,21.4 -52.05,25.5 -68.42,9.13 -16.37,-16.37 -12.27,-47.02 9.14,-68.42 z"
       inkscape:export-ydpi="90"
       inkscape:export-filename="/home/barret/Desktop/My Documents/Art/icons/key.png"
       inkscape:export-xdpi="90"
       inkscape:connector-curvature="0" />
  </g>
  <metadata
     id="metadata23">
    <rdf:RDF>
      <cc:Work>
        <dc:format>image/svg+xml</dc:format>
        <dc:type
           rdf:resource="http://purl.org/dc/dcmitype/StillImage" />
        <cc:license
           rdf:resource="http://creativecommons.org/publicdomain/zero/1.0/" />
        <dc:publisher>
          <cc:Agent
             rdf:about="http://openclipart.org/">
            <dc:title>Openclipart</dc:title>
          </cc:Agent>
        </dc:publisher>
        <dc:title>Key</dc:title>
        <dc:date>2007-02-27T15:15:43</dc:date>
        <dc:description>A key icon.</dc:description>
        <dc:source>https://openclipart.org/detail/3330/key-by-barretr</dc:source>
        <dc:creator>
          <cc:Agent>
            <dc:title>barretr</dc:title>
          </cc:Agent>
        </dc:creator>
        <dc:subject>
          <rdf:Bag>
            <rdf:li>icon</rdf:li>
            <rdf:li>key</rdf:li>
          </rdf:Bag>
        </dc:subject>
      </cc:Work>
      <cc:License
         rdf:about="http://creativecommons.org/publicdomain/zero/1.0/">
        <cc:permits
           rdf:resource="http://creativecommons.org/ns#Reproduction" />
        <cc:permits
           rdf:resource="http://creativecommons.org/ns#Distribution" />
        <cc:permits
           rdf:resource="http://creativecommons.org/ns#DerivativeWorks" />
      </cc:License>
    </rdf:RDF>
  </metadata>
</svg>
